<svg width="14" height="14" viewBox="0 0 14 14" fill="none" xmlns="http://www.w3.org/2000/svg">
<path d="M9 3.5H3C2.17157 3.5 1.5 4.17157 1.5 5V9C1.5 9.82843 2.17157 10.5 3 10.5H9C9.82843 10.5 10.5 9.82843 10.5 9V5C10.5 4.17157 9.82843 3.5 9 3.5Z" stroke="#716E67" stroke-width="1.5"/>
<path d="M4 3.5V2.5C4 2.23478 4.10536 1.98043 4.29289 1.79289C4.48043 1.60536 4.73478 1.5 5 1.5H11.5C11.7652 1.5 12.0196 1.60536 12.2071 1.79289C12.3946 1.98043 12.5 2.23478 12.5 2.5V8" stroke="#716E67" stroke-width="1.5"/>
</svg>
